<svg width="1504" height="1504" viewBox="0 0 1504 1504" fill="none" xmlns="http://www.w3.org/2000/svg">
<path d="M752 0C1167.32 0 1504 336.682 1504 752C1504 1167.32 1167.32 1504 752 1504C336.682 1504 0 1167.32 0 752C0 336.682 336.682 0 752 0ZM752 8C341.1 8 8 341.1 8 752C8 1162.9 341.1 1496 752 1496C1162.9 1496 1496 1162.9 1496 752C1496 341.1 1162.9 8 752 8ZM756 809H748V793H711V756H695V748H711V711H748V695H756V711H793V748H809V756H793V793H756V809ZM719 785H785V719H719V785ZM756 748H768V756H756V768H748V756H736V748H748V736H756V748Z" fill="url(#paint0_linear_322_1666)"/>
<defs>
<linearGradient id="paint0_linear_322_1666" x1="0" y1="0" x2="1568.9" y2="90.5198" gradientUnits="userSpaceOnUse">
<stop stop-color="#FF0000"/>
<stop offset="1" stop-color="#FFD5AB"/>
</linearGradient>
</defs>
</svg>
