<svg width="2490" height="431" viewBox="0 0 2490 431" fill="none" xmlns="http://www.w3.org/2000/svg">
<path d="M194.188 0C235.716 4.7942e-05 271.086 10.2288 296.245 28.5332C321.539 46.9356 336.324 73.4132 336.324 104.956L336.315 106.183C335.948 131.895 324.044 155.585 306.57 173.943C292.8 188.411 275.366 199.796 256.815 206.428C276.557 217.3 289.56 232.965 299.242 255.158L299.81 256.475L299.815 256.489L299.821 256.503L341.577 356.031L341.585 356.05L341.592 356.068C345.217 364.872 349.961 370.722 356.055 374.825C362.065 378.872 369.8 381.497 380.005 383.153L381.001 383.311L384.595 383.863L398.078 382.691L398.089 382.69C410.676 381.619 419.238 377.948 424.677 372.337C430.064 366.779 433.21 358.467 433.21 346.341V66.0605C433.21 53.9341 430.064 45.6212 424.677 40.0635C419.408 34.6281 411.208 31.0128 399.257 29.8184L398.089 29.7109L398.078 29.71L379.441 28.0889V0H559.609V28.0889L540.974 29.71L540.963 29.7109C528.376 30.7822 519.813 34.4527 514.374 40.0635C508.987 45.6212 505.842 53.9342 505.842 66.0605V185.9H682.029V66.0605C682.029 53.9341 678.885 45.6212 673.497 40.0635C668.228 34.628 660.028 31.0129 648.077 29.8184L646.909 29.7109L646.898 29.71L628.262 28.0889V0H958.039V27.9111L938.461 30.2607C928.568 31.503 923.655 35.8927 922.006 41.0693C920.275 46.502 921.407 54.9116 928.316 65.6865L929.003 66.7363L929.009 66.7441L929.014 66.751L1017.99 201.092L1098.03 79.3525L1098.04 79.3457L1098.04 79.3389C1109.45 62.091 1110.95 50.4316 1108.18 43.3652C1105.61 36.786 1098.25 31.6409 1084.82 29.8564L1083.5 29.6943L1083.48 29.6924L1083.47 29.6914L1068.45 27.9238V0H1200V4.15332L1200.22 0H1734.24V28.0889L1715.61 29.71L1715.59 29.7109C1703.01 30.7822 1694.45 34.4528 1689.01 40.0635C1683.62 45.6212 1680.47 53.9341 1680.47 66.0605V185.9H1856.66V66.0605C1856.66 53.9342 1853.52 45.6212 1848.13 40.0635C1842.86 34.6281 1834.66 31.0129 1822.71 29.8184L1821.53 29.71L1802.89 28.0889V0H2114.11L2235.88 298.308L2355.42 0H2489.6V28.0889L2470.96 29.71L2470.95 29.7109C2458.37 30.7821 2449.8 34.4528 2444.36 40.0635C2438.98 45.6212 2435.83 53.9341 2435.83 66.0605V346.341L2435.84 347.466C2436.03 358.984 2439.15 366.953 2444.36 372.337C2449.63 377.772 2457.83 381.388 2469.78 382.582L2470.95 382.69L2470.96 382.691L2489.6 384.312V412.4H2310V384.312L2328.64 382.691L2328.65 382.69C2341.24 381.619 2349.8 377.948 2355.24 372.337C2360.63 366.779 2363.77 358.467 2363.77 346.341V86.1113L2222.79 430.133H2213.59L2072.61 86.2188V340.049L2072.62 341.292C2072.81 354.025 2075.99 363.225 2081.46 369.605C2087.08 376.164 2095.82 380.553 2108.54 382.143L2108.56 382.145L2108.57 382.146L2126.95 384.544V412.4H1802.89V384.312L1821.53 382.691L1821.54 382.69C1834.13 381.619 1842.69 377.948 1848.13 372.337C1853.52 366.779 1856.66 358.467 1856.66 346.341V217.92H1680.47V346.341L1680.48 347.466C1680.67 358.984 1683.79 366.953 1689.01 372.337C1694.28 377.772 1702.48 381.388 1714.43 382.582L1715.59 382.69L1715.61 382.691L1734.24 384.312V412.4H1554.07V384.312L1572.71 382.691L1572.72 382.69C1585.31 381.619 1593.87 377.948 1599.31 372.337C1604.7 366.779 1607.84 358.467 1607.84 346.341V66.0605C1607.84 53.9341 1604.7 45.6212 1599.31 40.0635C1594.04 34.628 1585.84 31.0129 1573.89 29.8184L1572.72 29.7109L1572.71 29.71L1555.75 28.2344L1561.73 137.841H1531.99L1521.61 101.482C1514.63 77.4941 1505.24 61.1731 1492.78 50.793C1480.43 40.4983 1464.34 35.4521 1442.71 35.4521H1413.82V346.341L1413.83 347.466C1414.02 358.983 1417.13 366.953 1422.35 372.337C1427.62 377.772 1435.82 381.387 1447.77 382.582L1448.94 382.69L1448.95 382.691L1467.59 384.312V412.4H1287.42V384.312L1306.06 382.691L1306.07 382.69C1318.65 381.619 1327.22 377.948 1332.65 372.337C1338.04 366.779 1341.19 358.467 1341.19 346.341V35.4521H1311.72C1290.09 35.4521 1274.01 40.4983 1261.65 50.793C1249.2 61.171 1239.81 77.488 1232.83 101.469L1222.44 137.841H1192.7L1198.78 26.377L1195.54 27.2422C1180.45 31.2665 1166.63 42.4274 1150.38 67.0742L1150.37 67.1016L1150.35 67.1289L1040.98 229.198V346.341L1040.99 347.466C1041.18 358.983 1044.29 366.953 1049.51 372.337C1054.78 377.772 1062.98 381.388 1074.93 382.582L1076.1 382.69L1076.11 382.691L1094.75 384.312V412.4H916.295V384.312L934.932 382.691L934.942 382.69C947.529 381.619 956.091 377.948 961.53 372.337C966.918 366.779 970.063 358.467 970.063 346.341L970.062 245.199L845.803 59.0928C832.883 39.7135 821.73 30.8091 808.43 27.5889V28.0889L789.794 29.71L789.782 29.7109C777.196 30.7822 768.633 34.4527 763.194 40.0635C757.807 45.6212 754.662 53.9341 754.662 66.0605V346.341L754.671 347.466C754.86 358.983 757.975 366.953 763.194 372.337C768.463 377.772 776.664 381.388 788.614 382.582L789.782 382.69L789.794 382.691L808.43 384.312V412.4H628.262V384.312L646.898 382.691L646.909 382.69C659.496 381.619 668.058 377.948 673.497 372.337C678.885 366.779 682.029 358.467 682.029 346.341V217.92H505.842V346.341L505.851 347.466C506.04 358.983 509.155 366.953 514.374 372.337C519.643 377.772 527.843 381.387 539.794 382.582L540.963 382.69L540.974 382.691L559.609 384.312V412.4H282.694L224.61 257.51C219.082 242.86 212.874 233.442 205.321 227.608C198.114 222.042 189.031 219.242 176.532 219.072L175.312 219.064H126.4V346.341L126.409 347.466C126.599 358.983 129.713 366.953 134.933 372.337C140.202 377.772 148.402 381.387 160.353 382.582L161.521 382.69L161.532 382.691L180.168 384.312V412.4H0V384.312L18.6367 382.691L18.6475 382.69C31.2343 381.619 39.7963 377.948 45.2354 372.337C50.6228 366.779 53.7685 358.467 53.7686 346.341V66.0605C53.7686 53.9341 50.6229 45.6212 45.2354 40.0635C39.9662 34.6281 31.7661 31.0128 19.8154 29.8184L18.6475 29.7109L18.6367 29.71L0 28.0889V0H194.188ZM1982.53 22.5889L1995.68 24.3047C2023.14 27.7368 2036.29 43.1807 2036.29 72.3525V340.049L2036.29 341.406C2035.88 369.7 2022.71 384.718 1995.68 388.097L1982.53 389.812V406.4H2120.95V389.812L2107.79 388.097C2080.77 384.718 2067.04 369.146 2066.62 341.38L2066.61 340.049V55.7646L2217.62 424.133H2218.76L2366.91 62.6279H2378.92L2369.77 84.9365V346.341L2369.76 347.564C2369.34 373.079 2355.62 386.416 2329.16 388.668L2316 389.812V406.4H2483.6V389.812L2470.44 388.668C2443.98 386.416 2430.26 373.079 2429.84 347.564L2429.83 346.341V66.0605C2429.83 40.1598 2443.13 26.4522 2469.19 23.8477L2470.44 23.7324L2483.6 22.5889V6H2359.48L2227.92 334.328L2221.05 320.601L2229.63 298.864L2110.08 6H1982.53V22.5889ZM6 6V22.5889L19.1562 23.7324C46.0402 26.0204 59.7686 39.7486 59.7686 66.0605V346.341L59.7578 347.564C59.3357 373.079 45.6202 386.416 19.1562 388.668L6 389.812V406.4H174.168V389.812L161.012 388.668C134.548 386.416 120.832 373.078 120.41 347.564L120.4 346.341V224.504H99.8086V213.064H175.312C203.34 213.065 218.785 225.077 230.225 255.393L286.853 406.4H553.609V389.812L540.454 388.668C513.99 386.416 500.274 373.079 499.852 347.564L499.842 346.341V223.36H479.25V211.92H708.622V223.36H688.029V346.341L688.02 347.564C687.597 373.078 673.882 386.416 647.418 388.668L634.262 389.812V406.4H802.43V389.812L789.273 388.668C762.81 386.416 749.094 373.078 748.672 347.564L748.662 346.341V66.0605C748.662 40.1596 761.964 26.452 788.023 23.8477L789.273 23.7324L802.43 22.5889V6H634.262V22.5889L647.418 23.7324C674.302 26.0205 688.029 39.7486 688.029 66.0605V191.9H499.842V66.0605C499.842 40.1597 513.144 26.4521 539.203 23.8477L540.454 23.7324L553.609 22.5889V6H385.441V22.5889L398.598 23.7324C425.482 26.0204 439.21 39.7485 439.21 66.0605V346.341L439.199 347.564C438.777 373.079 425.062 386.416 398.598 388.668L385.441 389.812V390.063L380.088 389.24C357.78 385.808 344.052 377.8 336.044 358.353L294.288 258.824C282.848 231.94 266.832 215.353 239.376 205.057C285.346 195.976 329.627 154.236 330.316 106.095L330.324 104.956C330.324 46.5005 276.267 6.62723 196.087 6.00781L194.188 6H6ZM808.467 21.4443C824.483 24.8763 837.067 35.1726 850.795 55.7646L976.063 243.381V346.341L976.053 347.564C975.631 373.079 961.915 386.416 935.451 388.668L922.295 389.812V406.4H1088.75V389.812L1075.59 388.668C1049.13 386.416 1035.41 373.078 1034.99 347.564L1034.98 346.341V227.364L1145.38 63.7725C1161.96 38.6045 1176.84 26.0203 1194 21.4443V6H1074.45V22.5889L1084.17 23.7324C1114.49 27.1644 1126.5 47.1845 1103.05 82.6484L1007.52 227.937L1000.09 219.356L1011.53 202.196L924.011 70.0645C907.995 46.0405 914.859 27.1647 937.739 24.3047L952.039 22.5889V6H808.467V21.4443ZM1199.04 131.841H1217.92L1227.07 99.8086C1241.26 51.0009 1266.14 29.7845 1310.67 29.4561L1311.72 29.4521H1347.19V346.341L1347.18 347.564C1346.75 373.079 1333.04 386.416 1306.58 388.668L1293.42 389.812V406.4H1461.59V389.812L1448.43 388.668C1421.97 386.416 1408.25 373.079 1407.83 347.564L1407.82 346.341V40.8926H1387.23V29.4521H1442.71C1487.9 29.4521 1513.07 50.6166 1527.37 99.8086L1536.52 131.841H1555.4L1548.53 6H1205.9L1199.04 131.841ZM1560.07 22.5889L1573.23 23.7324C1600.11 26.0205 1613.84 39.7487 1613.84 66.0605V346.341L1613.83 347.564C1613.41 373.078 1599.69 386.416 1573.23 388.668L1560.07 389.812V406.4H1728.24V389.812L1715.09 388.668C1688.62 386.416 1674.91 373.079 1674.48 347.564L1674.47 346.341V223.36H1653.88V211.92H1883.25V223.36H1862.66V346.341L1862.65 347.564C1862.23 373.079 1848.51 386.416 1822.05 388.668L1808.89 389.812V406.4H1977.06V389.812L1963.91 388.668C1937.44 386.416 1923.73 373.079 1923.3 347.564L1923.29 346.341V66.0605C1923.29 40.1597 1936.6 26.4521 1962.66 23.8477L1963.91 23.7324L1976.53 22.6348L1977.06 22.5889V6H1808.89V22.5889L1822.05 23.7324C1848.93 26.0204 1862.66 39.7485 1862.66 66.0605V191.9H1674.47V66.0605C1674.47 40.1595 1687.78 26.452 1713.84 23.8477L1715.09 23.7324L1728.24 22.5889V6H1560.07V22.5889ZM1964.43 29.71L1964.42 29.7109C1951.83 30.7822 1943.27 34.4527 1937.83 40.0635C1932.44 45.6212 1929.29 53.9342 1929.29 66.0605V346.341L1929.3 347.466C1929.49 358.983 1932.61 366.953 1937.83 372.337C1943.1 377.772 1951.3 381.388 1963.25 382.582L1964.42 382.69L1964.43 382.691L1980.21 384.063L1994.91 382.146L1994.92 382.145L1994.94 382.143C2007.71 380.547 2016.26 376.283 2021.71 369.848C2027.19 363.369 2030.29 353.797 2030.29 340.049V72.3525C2030.29 58.6045 2027.19 49.0327 2021.71 42.5537C2016.43 36.3194 2008.24 32.1221 1996.12 30.415L1994.94 30.2578L1994.92 30.2559L1994.91 30.2539L1980.21 28.3369L1964.43 29.71ZM185.036 29.4521C235.944 29.4521 266.832 60.3408 266.832 110.677L266.826 111.826C266.313 160.385 233.276 193.044 185.036 193.044H120.4V40.8926H99.8086V29.4521H185.036ZM126.4 187.044H185.036C207.946 187.044 226.799 179.254 239.913 166.075C253.028 152.895 260.832 133.892 260.832 110.677C260.832 86.7467 253.515 68.0993 240.793 55.4414C228.067 42.7804 209.27 35.4521 185.036 35.4521H126.4V187.044Z" fill="url(#paint0_linear_285_195)"/>
<defs>
<linearGradient id="paint0_linear_285_195" x1="-560.695" y1="-138.6" x2="3071.02" y2="391.187" gradientUnits="userSpaceOnUse">
<stop stop-color="#FF0000"/>
<stop offset="1" stop-color="#FFD5AB"/>
</linearGradient>
</defs>
</svg>
