<svg width="1603" height="210" viewBox="0 0 1603 210" fill="none" xmlns="http://www.w3.org/2000/svg">
<path d="M36.75 0C57.75 0 57.75 13.125 57.75 42V81.6377C57.7499 82.4251 57.2249 82.9502 56.4375 82.9502H32.8125C32.0251 82.9502 31.5001 82.4251 31.5 81.6377V23.625H26.25V77.4375C26.25 80.325 26.25 83.2125 31.5 87.9375L44.625 101.062C56.4375 112.875 57.75 113.138 57.75 134.4V168C57.75 196.875 57.75 210 36.75 210H21C0 210 0 196.875 0 168V125.737C8.41293e-05 124.95 0.525063 124.425 1.3125 124.425H24.9375C25.7249 124.425 26.2499 124.95 26.25 125.737V186.375H31.5V129.938C31.5 127.05 31.7625 123.375 26.25 119.438L15.75 110.25C1.8375 97.9125 0 92.9246 0 71.6621V42C0 13.125 0 0 21 0H36.75ZM103.75 0C104.538 0 105.062 0.524994 105.062 1.3125V19.6875C105.062 20.475 104.538 21 103.75 21H89.3125V94.5H101.125C101.913 94.5 102.438 95.025 102.438 95.8125V114.188C102.438 114.975 101.913 115.5 101.125 115.5H89.3125V189H103.75C104.538 189 105.062 189.525 105.062 190.312V208.688C105.062 209.475 104.538 210 103.75 210H64.375C63.5875 210 63.0625 209.475 63.0625 208.688V1.3125C63.0625 0.524994 63.5875 0 64.375 0H103.75ZM150.918 0C151.705 0 152.23 0.524994 152.23 1.3125V19.6875C152.23 20.475 151.705 21 150.918 21H136.48V94.5H148.293C149.08 94.5 149.605 95.025 149.605 95.8125V114.188C149.605 114.975 149.08 115.5 148.293 115.5H136.48V189H150.918C151.705 189 152.23 189.525 152.23 190.312V208.688C152.23 209.475 151.705 210 150.918 210H111.543C110.755 210 110.23 209.475 110.23 208.688V1.3125C110.23 0.524994 110.755 0 111.543 0H150.918ZM182.336 0C183.123 0 183.648 0.524994 183.648 1.3125V93.1875H187.586L195.198 1.3125C195.198 0.524994 195.986 0 196.773 0H221.448C222.236 0 222.498 0.524994 222.498 1.3125L212.786 105L222.498 208.688C222.498 209.738 222.236 210 221.448 210H196.773C195.986 210 195.198 209.475 195.198 208.688L187.586 116.812H183.648V208.688C183.648 209.475 183.123 210 182.336 210H158.711C157.923 210 157.398 209.475 157.398 208.688V1.3125C157.398 0.524994 157.923 0 158.711 0H182.336ZM294.656 0C295.444 0 295.969 0.524994 295.969 1.3125V19.6875C295.969 20.475 295.444 21 294.656 21H284.156V208.688C284.156 209.475 283.631 210 282.844 210H259.219C258.431 210 257.906 209.475 257.906 208.688V21H247.406C246.619 21 246.094 20.475 246.094 19.6875V1.3125C246.094 0.524994 246.619 0 247.406 0H294.656ZM326.146 0C326.934 0 327.459 0.524994 327.459 1.3125V94.5H332.709V1.3125C332.709 0.524994 333.234 0 334.021 0H357.646C358.434 0 358.959 0.524994 358.959 1.3125V208.688C358.959 209.475 358.434 210 357.646 210H334.021C333.234 210 332.709 209.475 332.709 208.688V115.5H327.459V208.688C327.459 209.475 326.934 210 326.146 210H302.521C301.734 210 301.209 209.475 301.209 208.688V1.3125C301.209 0.524994 301.734 0 302.521 0H326.146ZM404.957 0C405.745 0 406.27 0.524994 406.27 1.3125V19.6875C406.27 20.475 405.745 21 404.957 21H390.52V94.5H402.332C403.12 94.5 403.645 95.025 403.645 95.8125V114.188C403.645 114.975 403.12 115.5 402.332 115.5H390.52V189H404.957C405.745 189 406.27 189.525 406.27 190.312V208.688C406.27 209.475 405.745 210 404.957 210H365.582C364.795 210 364.27 209.475 364.27 208.688V1.3125C364.27 0.524994 364.795 0 365.582 0H404.957ZM466.645 0C487.645 0 487.645 13.125 487.645 42V81.6377C487.644 82.4251 487.119 82.9502 486.332 82.9502H462.707C461.92 82.9502 461.395 82.4251 461.395 81.6377V23.625H456.145V77.4375C456.145 80.325 456.145 83.2125 461.395 87.9375L474.52 101.062C486.332 112.875 487.645 113.138 487.645 134.4V168C487.645 196.875 487.645 210 466.645 210H450.895C429.895 210 429.895 196.875 429.895 168V125.737C429.895 124.95 430.42 124.425 431.207 124.425H454.832C455.619 124.425 456.144 124.95 456.145 125.737V186.375H461.395V129.938C461.395 127.05 461.657 123.375 456.145 119.438L445.645 110.25C431.732 97.9125 429.895 92.9246 429.895 71.6621V42C429.895 13.125 429.895 0 450.895 0H466.645ZM529.707 0C550.707 0 550.707 13.125 550.707 42V168C550.707 196.875 550.707 210 529.707 210H513.957C492.957 210 492.957 196.875 492.957 168V42C492.957 13.125 492.957 0 513.957 0H529.707ZM580.953 0C581.741 0 582.266 0.524994 582.266 1.3125V186.375H587.516V1.3125C587.516 0.524994 588.041 0 588.828 0H612.453C613.241 0 613.766 0.524994 613.766 1.3125V168C613.766 196.875 613.766 210 592.766 210H577.016C556.016 210 556.016 196.875 556.016 168V1.3125C556.016 0.524994 556.541 0 557.328 0H580.953ZM655.832 0C676.832 0 676.832 13.125 676.832 42V79.5371C676.832 93.7121 668.694 97.9125 664.494 98.4375V101.062C668.432 101.588 676.832 105.788 676.832 119.963V189.525C676.832 193.988 676.833 203.175 679.982 208.425C680.507 209.212 679.982 210 679.194 210H655.045C654.52 210 653.732 209.475 653.47 208.95C650.057 203.7 650.057 194.513 650.057 189.525L650.582 110.25H645.332V208.688C645.332 209.475 644.807 210 644.02 210H620.395C619.607 210 619.082 209.475 619.082 208.688V1.3125C619.082 0.524994 619.607 0 620.395 0H655.832ZM718.379 0C739.379 0 739.379 13.125 739.379 42V95.2871C739.379 96.0746 738.854 96.5996 738.066 96.5996H714.441C713.654 96.5996 713.129 96.0746 713.129 95.2871V23.625H707.879V186.375H713.129V103.162C713.129 102.375 713.654 101.85 714.441 101.85H738.066C738.854 101.85 739.379 102.375 739.379 103.162V168C739.379 196.875 739.379 210 718.379 210H702.629C681.629 210 681.629 196.875 681.629 168V42C681.629 13.125 681.629 0 702.629 0H718.379ZM785.377 0C786.164 0 786.689 0.524994 786.689 1.3125V19.6875C786.689 20.475 786.164 21 785.377 21H770.939V94.5H782.752C783.539 94.5 784.064 95.025 784.064 95.8125V114.188C784.064 114.975 783.539 115.5 782.752 115.5H770.939V189H785.377C786.164 189 786.689 189.525 786.689 190.312V208.688C786.689 209.475 786.164 210 785.377 210H746.002C745.214 210 744.689 209.475 744.689 208.688V1.3125C744.689 0.524994 745.214 0 746.002 0H785.377ZM832.364 0C833.152 0 833.939 0.524994 833.939 1.3125L845.752 102.375H847.064V1.3125C847.064 0.524994 847.589 0 848.377 0H874.627C875.414 0 875.939 0.524994 875.939 1.3125V208.688C875.939 209.475 875.414 210 874.627 210H853.89C853.102 210 852.314 209.475 852.314 208.688L837.877 97.125H836.564V208.688C836.564 209.475 836.039 210 835.252 210H811.627C810.839 210 810.314 209.475 810.314 208.688V1.3125C810.314 0.524994 810.839 0 811.627 0H832.364ZM917.816 0C938.816 0 938.816 13.125 938.816 42V168C938.816 196.875 938.816 210 917.816 210H902.066C881.066 210 881.066 196.875 881.066 168V42C881.066 13.125 881.066 0 902.066 0H917.816ZM990.129 0C990.916 0 991.441 0.524994 991.441 1.3125V19.6875C991.441 20.475 990.916 21 990.129 21H979.629V208.688C979.629 209.475 979.104 210 978.316 210H954.691C953.904 210 953.379 209.475 953.379 208.688V21H942.879C942.091 21 941.566 20.475 941.566 19.6875V1.3125C941.566 0.524994 942.091 0 942.879 0H990.129ZM1063.7 0C1064.49 0 1065.01 0.524994 1065.01 1.3125V19.6875C1065.01 20.475 1064.49 21 1063.7 21H1053.2V208.688C1053.2 209.475 1052.67 210 1051.89 210H1028.26C1027.47 210 1026.95 209.475 1026.95 208.688V21H1016.45C1015.66 21 1015.14 20.475 1015.14 19.6875V1.3125C1015.14 0.524994 1015.66 0 1016.45 0H1063.7ZM1095.19 0C1095.97 0 1096.5 0.524994 1096.5 1.3125V94.5H1101.75V1.3125C1101.75 0.524994 1102.27 0 1103.06 0H1126.69C1127.48 0 1128 0.524994 1128 1.3125V208.688C1128 209.475 1127.48 210 1126.69 210H1103.06C1102.27 210 1101.75 209.475 1101.75 208.688V115.5H1096.5V208.688C1096.5 209.475 1095.97 210 1095.19 210H1071.56C1070.77 210 1070.25 209.475 1070.25 208.688V1.3125C1070.25 0.524994 1070.77 0 1071.56 0H1095.19ZM1174 0C1174.79 0 1175.31 0.524994 1175.31 1.3125V19.6875C1175.31 20.475 1174.79 21 1174 21H1159.56V94.5H1171.38C1172.16 94.5 1172.69 95.025 1172.69 95.8125V114.188C1172.69 114.975 1172.16 115.5 1171.38 115.5H1159.56V189H1174C1174.79 189 1175.31 189.525 1175.31 190.312V208.688C1175.31 209.475 1174.79 210 1174 210H1134.62C1133.84 210 1133.31 209.475 1133.31 208.688V1.3125C1133.31 0.524994 1133.84 0 1134.62 0H1174ZM1235.69 0C1256.69 0 1256.69 13.125 1256.69 42V81.6377C1256.69 82.4251 1256.16 82.9502 1255.38 82.9502H1231.75C1230.96 82.9502 1230.44 82.4251 1230.44 81.6377V23.625H1225.19V77.4375C1225.19 80.325 1225.19 83.2125 1230.44 87.9375L1243.56 101.062C1255.37 112.875 1256.69 113.138 1256.69 134.4V168C1256.69 196.875 1256.69 210 1235.69 210H1219.94C1198.94 210 1198.94 196.875 1198.94 168V125.737C1198.94 124.95 1199.46 124.425 1200.25 124.425H1223.88C1224.66 124.425 1225.19 124.95 1225.19 125.737V186.375H1230.44V129.938C1230.44 127.05 1230.7 123.375 1225.19 119.438L1214.69 110.25C1200.78 97.9125 1198.94 92.9246 1198.94 71.6621V42C1198.94 13.125 1198.94 0 1219.94 0H1235.69ZM1286.94 0C1287.72 0 1288.25 0.524994 1288.25 1.3125V186.375H1293.5V1.3125C1293.5 0.524994 1294.02 0 1294.81 0H1318.44C1319.23 0 1319.75 0.524994 1319.75 1.3125V168C1319.75 196.875 1319.75 210 1298.75 210H1283C1262 210 1262 196.875 1262 168V1.3125C1262 0.524994 1262.52 0 1263.31 0H1286.94ZM1361.81 0C1382.81 0 1382.81 13.125 1382.81 42V79.5371C1382.81 93.7121 1374.67 97.9125 1370.47 98.4375V101.062C1374.41 101.588 1382.81 105.788 1382.81 119.963V189.525C1382.81 193.988 1382.81 203.175 1385.96 208.425C1386.49 209.212 1385.96 210 1385.17 210H1361.03C1360.5 210 1359.71 209.475 1359.45 208.95C1356.04 203.7 1356.04 194.513 1356.04 189.525L1356.56 110.25H1351.31V208.688C1351.31 209.475 1350.79 210 1350 210H1326.38C1325.59 210 1325.06 209.475 1325.06 208.688V1.3125C1325.06 0.524995 1325.59 5.29819e-08 1326.38 0H1361.81ZM1432.14 0C1432.93 0 1433.46 0.524994 1433.46 1.3125V19.6875C1433.46 20.475 1432.93 21 1432.14 21H1417.71V94.5H1429.52C1430.31 94.5 1430.83 95.025 1430.83 95.8125V114.188C1430.83 114.975 1430.31 115.5 1429.52 115.5H1417.71V208.688C1417.71 209.475 1417.18 210 1416.39 210H1392.77C1391.98 210 1391.46 209.475 1391.46 208.688V1.3125C1391.46 0.524994 1391.98 0 1392.77 0H1432.14ZM1488.82 0C1489.61 5.65538e-05 1490.13 0.262611 1490.13 1.3125L1493.81 208.688C1493.81 209.738 1493.28 210 1492.5 210H1468.87C1468.08 210 1467.56 209.737 1467.56 208.688L1467.03 150.938H1461.52L1461 208.688C1461 209.738 1460.47 210 1459.68 210H1436.06C1435.27 210 1434.75 209.738 1434.75 208.688L1438.42 1.3125C1438.42 0.262613 1438.95 5.77461e-05 1439.73 0H1488.82ZM1534.59 0C1555.59 0 1555.59 13.125 1555.59 42V95.2871C1555.59 96.0746 1555.06 96.5996 1554.28 96.5996H1530.65C1529.86 96.5996 1529.34 96.0746 1529.34 95.2871V23.625H1524.09V186.375H1529.34V103.162C1529.34 102.375 1529.86 101.85 1530.65 101.85H1554.28C1555.06 101.85 1555.59 102.375 1555.59 103.162V168C1555.59 196.875 1555.59 210 1534.59 210H1518.84C1497.84 210 1497.84 196.875 1497.84 168V42C1497.84 13.125 1497.84 0 1518.84 0H1534.59ZM1601.59 0C1602.38 0 1602.9 0.524994 1602.9 1.3125V19.6875C1602.9 20.475 1602.38 21 1601.59 21H1587.15V94.5H1598.96C1599.75 94.5 1600.28 95.025 1600.28 95.8125V114.188C1600.28 114.975 1599.75 115.5 1598.96 115.5H1587.15V189H1601.59C1602.38 189 1602.9 189.525 1602.9 190.312V208.688C1602.9 209.475 1602.38 210 1601.59 210H1562.21C1561.43 210 1560.9 209.475 1560.9 208.688V1.3125C1560.9 0.524994 1561.43 0 1562.21 0H1601.59ZM519.207 186.375H524.457V23.625H519.207V186.375ZM907.316 186.375H912.566V23.625H907.316V186.375ZM1461.52 129.938H1467.03L1466.25 23.625H1462.31L1461.52 129.938ZM645.332 89.25H650.582V23.625H645.332V89.25ZM1351.31 89.25H1356.56V23.625H1351.31V89.25Z" fill="white"/>
</svg>
