<svg width="250" height="250" viewBox="0 0 250 250" fill="none" xmlns="http://www.w3.org/2000/svg">
<path d="M218 0C235.673 2.83475e-06 250 14.3269 250 32V250H32C14.3269 250 8.21482e-07 235.673 0 218V0H218ZM164.687 165.331C139.548 155.183 111.453 155.183 86.3145 165.331L81.75 167.175V201.127H169.251V167.175L164.687 165.331ZM96.334 177.158C115.239 170.689 135.762 170.689 154.667 177.158V186.544H96.334V177.158ZM88.1445 128.771C72.7257 127.826 57.1484 130.275 42.5645 136.162L38 138.007V171.959H67.167V157.375H52.583V147.998C65.1791 143.687 78.4928 142.244 91.5693 143.675C89.4407 139.139 88.2254 134.094 88.1445 128.771ZM208.436 136.16C193.275 130.04 177.039 127.634 161.025 128.896C160.925 134.264 159.68 139.348 157.501 143.907C171.194 142.108 185.201 143.472 198.417 147.995V157.373H183.833V171.957H213V138.005L208.436 136.16ZM125.5 106.333C113.419 106.333 103.625 116.127 103.625 128.208C103.625 140.289 113.419 150.083 125.5 150.083C137.581 150.083 147.375 140.289 147.375 128.208C147.375 116.127 137.581 106.333 125.5 106.333ZM125.5 120.916C129.527 120.916 132.792 124.181 132.792 128.208C132.792 132.235 129.527 135.499 125.5 135.499C121.473 135.499 118.209 132.235 118.209 128.208C118.209 124.181 121.473 120.916 125.5 120.916ZM81.75 77.165C69.6688 77.1651 59.875 86.9588 59.875 99.04C59.875 111.121 69.6688 120.915 81.75 120.915C93.8313 120.915 103.625 111.121 103.625 99.04C103.625 86.9588 93.8313 77.165 81.75 77.165ZM169.251 77.165C157.169 77.165 147.375 86.9588 147.375 99.04C147.375 111.121 157.169 120.915 169.251 120.915C181.332 120.915 191.126 111.121 191.126 99.04C191.126 86.959 181.332 77.1653 169.251 77.165ZM81.75 91.748C85.7771 91.748 89.042 95.0129 89.042 99.04C89.042 103.067 85.7771 106.332 81.75 106.332C77.723 106.332 74.458 103.067 74.458 99.04C74.458 95.013 77.723 91.7481 81.75 91.748ZM169.251 91.748C173.278 91.7483 176.542 95.013 176.542 99.04C176.542 103.067 173.278 106.332 169.251 106.332C165.224 106.332 161.959 103.067 161.959 99.04C161.959 95.0129 165.224 91.748 169.251 91.748ZM125.5 48C113.419 48.0002 103.625 57.7939 103.625 69.875C103.625 81.9561 113.419 91.7498 125.5 91.75C137.582 91.75 147.375 81.9562 147.375 69.875C147.375 57.7938 137.582 48 125.5 48ZM125.5 62.583C129.527 62.583 132.792 65.8479 132.792 69.875C132.792 73.9022 129.527 77.167 125.5 77.167C121.473 77.1668 118.209 73.9021 118.209 69.875C118.209 65.848 121.473 62.5832 125.5 62.583Z" fill="url(#paint0_linear_306_613)"/>
<defs>
<linearGradient id="paint0_linear_306_613" x1="0" y1="0" x2="260.788" y2="15.0465" gradientUnits="userSpaceOnUse">
<stop stop-color="#FF0000"/>
<stop offset="1" stop-color="#FFD5AB"/>
</linearGradient>
</defs>
</svg>
