<svg width="1218" height="128" viewBox="0 0 1218 128" fill="none" xmlns="http://www.w3.org/2000/svg">
<path d="M1149 0V14H1134V28H1121V42H1093V43H1106V70H1107V84H1121V99H1135V113H1150V127H127V128H70V114H85V100H99V85H113V43H99V28H85V14H70V0H1149ZM1162 58H1176V72H1162V100H1148V86H1134V72H1120V58H1134V44H1148V30H1162V58ZM70 43H84V57H98V71H84V85H70V99H56V71H42V57H56V29H70V43ZM1190 86H1176V72H1190V86ZM42 85H28V71H42V85ZM1218 72H1190V58H1218V72ZM28 71H0V57H28V71ZM1190 58H1176V44H1190V58ZM42 57H28V43H42V57Z" fill="#FF9F0F"/>
<path d="M1176 44L1190 44L1190 58L1176 58L1176 44ZM1134 58L1148 58L1148 44L1162 44L1162 58L1176 58L1176 72L1162 72L1162 86L1148 86L1148 72L1134 72L1134 58ZM1190 58L1218 58L1218 72L1190 72L1190 58ZM1176 72L1190 72L1190 86L1176 86L1176 72Z" fill="#FECF88"/>
<path d="M42 43L28 43L28 57L42 57L42 43ZM84 57L70 57L70 43L56 43L56 57L42 57L42 71L56 71L56 85L70 85L70 71L84 71L84 57ZM28 57L-2.44784e-06 57L-1.22392e-06 71L28 71L28 57ZM42 71L28 71L28 85L42 85L42 71Z" fill="#FECF88"/>
<path d="M1176 44L1190 44L1190 58L1176 58L1176 44ZM1190 72L1190 58L1218 58L1218 72L1190 72Z" fill="#FFF6E8"/>
<path d="M42 43L28 43L28 57L42 57L42 43ZM28 71L28 57L-1.22392e-06 57L0 71L28 71Z" fill="#FFF6E8"/>
<path d="M328.25 51H337V59.75H328.25V68.5H310.75V86H302V42.25H328.25V51ZM380.75 51H389.5V59.75H380.75V77.25H372V68.5H363.25V86H354.5V42.25H380.75V51ZM389.5 86H380.75V77.25H389.5V86ZM433.25 51H415.75V59.75H433.25V68.5H415.75V77.25H433.25V86H407V42.25H433.25V51ZM477 51H485.75V77.25H477V86H459.5V77.25H450.75V51H459.5V42.25H477V51ZM529.5 51H538.25V59.75H529.5V77.25H520.75V68.5H512V86H503.25V42.25H529.5V51ZM538.25 86H529.5V77.25H538.25V86ZM582 51H590.75V77.25H582V86H555.75V42.25H582V51ZM634.5 51H617V59.75H634.5V68.5H617V77.25H634.5V86H608.25V42.25H634.5V51ZM678.25 51H687V59.75H678.25V77.25H669.5V68.5H660.75V86H652V42.25H678.25V51ZM687 86H678.25V77.25H687V86ZM748.25 51H757V59.75H748.25V86H739.5V42.25H748.25V51ZM783.25 86H774.5V77.25H765.75V68.5H757V59.75H765.75V68.5H774.5V42.25H783.25V86ZM827 51H835.75V77.25H827V86H809.5V77.25H800.75V51H809.5V42.25H827V51ZM879.5 77.25H870.75V86H862V77.25H870.75V51H879.5V77.25ZM888.25 86H879.5V77.25H888.25V86ZM564.5 77.25H581.65V51H564.5V77.25ZM862 77.25H853.25V42.25H862V77.25ZM897 77.25H888.25V42.25H897V77.25ZM459.5 76.9004H477V51.3496H459.5V76.9004ZM809.5 76.9004H827V51.3496H809.5V76.9004ZM310.75 59.75H327.9V51H310.75V59.75ZM363.25 59.75H380.4V51H363.25V59.75ZM512 59.75H529.15V51H512V59.75ZM660.75 59.75H677.9V51H660.75V59.75Z" fill="#61380A"/>
<path d="M332.25 55H341V63.75H332.25V72.5H314.75V90H306V46.25H332.25V55ZM384.75 55H393.5V63.75H384.75V81.25H376V72.5H367.25V90H358.5V46.25H384.75V55ZM393.5 90H384.75V81.25H393.5V90ZM437.25 55H419.75V63.75H437.25V72.5H419.75V81.25H437.25V90H411V46.25H437.25V55ZM481 55H489.75V81.25H481V90H463.5V81.25H454.75V55H463.5V46.25H481V55ZM533.5 55H542.25V63.75H533.5V81.25H524.75V72.5H516V90H507.25V46.25H533.5V55ZM542.25 90H533.5V81.25H542.25V90ZM586 55H594.75V81.25H586V90H559.75V46.25H586V55ZM638.5 55H621V63.75H638.5V72.5H621V81.25H638.5V90H612.25V46.25H638.5V55ZM682.25 55H691V63.75H682.25V81.25H673.5V72.5H664.75V90H656V46.25H682.25V55ZM691 90H682.25V81.25H691V90ZM752.25 55H761V63.75H752.25V90H743.5V46.25H752.25V55ZM787.25 90H778.5V81.25H769.75V72.5H761V63.75H769.75V72.5H778.5V46.25H787.25V90ZM831 55H839.75V81.25H831V90H813.5V81.25H804.75V55H813.5V46.25H831V55ZM883.5 81.25H874.75V90H866V81.25H874.75V55H883.5V81.25ZM892.25 90H883.5V81.25H892.25V90ZM568.5 81.25H585.65V55H568.5V81.25ZM866 81.25H857.25V46.25H866V81.25ZM901 81.25H892.25V46.25H901V81.25ZM463.5 80.9004H481V55.3496H463.5V80.9004ZM813.5 80.9004H831V55.3496H813.5V80.9004ZM314.75 63.75H331.9V55H314.75V63.75ZM367.25 63.75H384.4V55H367.25V63.75ZM516 63.75H533.15V55H516V63.75ZM664.75 63.75H681.9V55H664.75V63.75Z" fill="white"/>
<path d="M330.25 53H339V61.75H330.25V70.5H312.75V88H304V44.25H330.25V53ZM382.75 53H391.5V61.75H382.75V79.25H374V70.5H365.25V88H356.5V44.25H382.75V53ZM391.5 88H382.75V79.25H391.5V88ZM435.25 53H417.75V61.75H435.25V70.5H417.75V79.25H435.25V88H409V44.25H435.25V53ZM479 53H487.75V79.25H479V88H461.5V79.25H452.75V53H461.5V44.25H479V53ZM531.5 53H540.25V61.75H531.5V79.25H522.75V70.5H514V88H505.25V44.25H531.5V53ZM540.25 88H531.5V79.25H540.25V88ZM584 53H592.75V79.25H584V88H557.75V44.25H584V53ZM636.5 53H619V61.75H636.5V70.5H619V79.25H636.5V88H610.25V44.25H636.5V53ZM680.25 53H689V61.75H680.25V79.25H671.5V70.5H662.75V88H654V44.25H680.25V53ZM689 88H680.25V79.25H689V88ZM750.25 53H759V61.75H750.25V88H741.5V44.25H750.25V53ZM785.25 88H776.5V79.25H767.75V70.5H759V61.75H767.75V70.5H776.5V44.25H785.25V88ZM829 53H837.75V79.25H829V88H811.5V79.25H802.75V53H811.5V44.25H829V53ZM881.5 79.25H872.75V88H864V79.25H872.75V53H881.5V79.25ZM890.25 88H881.5V79.25H890.25V88ZM566.5 79.25H583.65V53H566.5V79.25ZM864 79.25H855.25V44.25H864V79.25ZM899 79.25H890.25V44.25H899V79.25ZM461.5 78.9004H479V53.3496H461.5V78.9004ZM811.5 78.9004H829V53.3496H811.5V78.9004ZM312.75 61.75H329.9V53H312.75V61.75ZM365.25 61.75H382.4V53H365.25V61.75ZM514 61.75H531.15V53H514V61.75ZM662.75 61.75H679.9V53H662.75V61.75Z" fill="#F5E3C8"/>
<path d="M1107 70H1093V42H1107V70ZM1121 42H1107V28H1121V42ZM1135 28H1121V14H1135V28ZM1149 14H1135V0H1149V14Z" fill="#DE7D02"/>
<path d="M112 70H126V42H112V70ZM98 42H112V28H98V42ZM84 28H98V14H84V28ZM70 14H84V0H70V14Z" fill="#DE7D02"/>
</svg>
